<mxfile host="app.diagrams.net" agent="Mozilla/5.0 (Windows NT 10.0; Win64; x64) AppleWebKit/537.36 (KHTML, like Gecko) Chrome/131.0.0.0 Safari/537.36" version="25.0.3">
  <diagram name="第 1 页" id="kjJ6qVegV2qcI-K3HXO2">
    <mxGraphModel dx="3161" dy="1906" grid="1" gridSize="10" guides="1" tooltips="1" connect="1" arrows="1" fold="1" page="1" pageScale="1" pageWidth="827" pageHeight="1169" math="0" shadow="0">
      <root>
        <mxCell id="0" />
        <mxCell id="1" parent="0" />
        <mxCell id="oy7IxXZ8f28WCVUuLW1C-1" value="&lt;b&gt;GameOverController&lt;/b&gt;" style="html=1;whiteSpace=wrap;" parent="1" vertex="1">
          <mxGeometry x="1281" y="996" width="199" height="50" as="geometry" />
        </mxCell>
        <mxCell id="oy7IxXZ8f28WCVUuLW1C-3" value="&lt;b&gt;Main&lt;/b&gt;" style="html=1;whiteSpace=wrap;" parent="1" vertex="1">
          <mxGeometry x="-530" y="1260" width="140" height="50" as="geometry" />
        </mxCell>
        <mxCell id="oy7IxXZ8f28WCVUuLW1C-5" value="&lt;b&gt;HomeController&lt;/b&gt;" style="html=1;whiteSpace=wrap;" parent="1" vertex="1">
          <mxGeometry x="1281" y="1062" width="199" height="50" as="geometry" />
        </mxCell>
        <mxCell id="oy7IxXZ8f28WCVUuLW1C-7" value="&lt;b&gt;InformationController&lt;/b&gt;" style="html=1;whiteSpace=wrap;" parent="1" vertex="1">
          <mxGeometry x="1281" y="572" width="199" height="50" as="geometry" />
        </mxCell>
        <mxCell id="oy7IxXZ8f28WCVUuLW1C-9" value="&lt;b&gt;InformationSubpage2Controller&lt;/b&gt;" style="html=1;whiteSpace=wrap;" parent="1" vertex="1">
          <mxGeometry x="1281" y="715" width="199" height="50" as="geometry" />
        </mxCell>
        <mxCell id="oy7IxXZ8f28WCVUuLW1C-10" value="&lt;b&gt;InformationSubpage3Controller&lt;/b&gt;" style="html=1;whiteSpace=wrap;" parent="1" vertex="1">
          <mxGeometry x="1281" y="794" width="199" height="50" as="geometry" />
        </mxCell>
        <mxCell id="oy7IxXZ8f28WCVUuLW1C-11" value="&lt;b&gt;InformationSubpage1Controller&lt;/b&gt;" style="html=1;whiteSpace=wrap;" parent="1" vertex="1">
          <mxGeometry x="1281" y="638" width="199" height="50" as="geometry" />
        </mxCell>
        <mxCell id="oy7IxXZ8f28WCVUuLW1C-15" value="&lt;b&gt;MapsController&lt;/b&gt;" style="html=1;whiteSpace=wrap;" parent="1" vertex="1">
          <mxGeometry x="1281" y="1128" width="199" height="50" as="geometry" />
        </mxCell>
        <mxCell id="oy7IxXZ8f28WCVUuLW1C-16" value="&lt;b&gt;OptionController&lt;/b&gt;" style="html=1;whiteSpace=wrap;" parent="1" vertex="1">
          <mxGeometry x="1281" y="930" width="199" height="50" as="geometry" />
        </mxCell>
        <mxCell id="oy7IxXZ8f28WCVUuLW1C-17" value="&lt;b&gt;ScoreController&lt;/b&gt;" style="html=1;whiteSpace=wrap;" parent="1" vertex="1">
          <mxGeometry x="1281" y="860" width="199" height="50" as="geometry" />
        </mxCell>
        <mxCell id="oy7IxXZ8f28WCVUuLW1C-18" value="&lt;b&gt;StartController&lt;/b&gt;" style="html=1;whiteSpace=wrap;" parent="1" vertex="1">
          <mxGeometry x="1281" y="510" width="199" height="50" as="geometry" />
        </mxCell>
        <mxCell id="oy7IxXZ8f28WCVUuLW1C-22" value="&lt;b&gt;PlayerController&lt;/b&gt;" style="html=1;whiteSpace=wrap;" parent="1" vertex="1">
          <mxGeometry x="698.5" y="1908" width="140" height="50" as="geometry" />
        </mxCell>
        <mxCell id="oy7IxXZ8f28WCVUuLW1C-24" value="&lt;b&gt;PlayerModel&lt;/b&gt;" style="html=1;whiteSpace=wrap;" parent="1" vertex="1">
          <mxGeometry x="491" y="1958" width="140" height="50" as="geometry" />
        </mxCell>
        <mxCell id="oy7IxXZ8f28WCVUuLW1C-26" value="&lt;b&gt;PlayerView&lt;/b&gt;" style="html=1;whiteSpace=wrap;" parent="1" vertex="1">
          <mxGeometry x="491" y="1868" width="140" height="50" as="geometry" />
        </mxCell>
        <mxCell id="oy7IxXZ8f28WCVUuLW1C-28" value="&lt;b&gt;GameState&lt;/b&gt;" style="html=1;whiteSpace=wrap;" parent="1" vertex="1">
          <mxGeometry x="700" y="1726" width="140" height="50" as="geometry" />
        </mxCell>
        <mxCell id="oy7IxXZ8f28WCVUuLW1C-30" value="&lt;b&gt;Character&lt;/b&gt;" style="html=1;whiteSpace=wrap;" parent="1" vertex="1">
          <mxGeometry x="490" y="1790" width="140" height="50" as="geometry" />
        </mxCell>
        <mxCell id="oy7IxXZ8f28WCVUuLW1C-31" value="&lt;b&gt;Map&lt;/b&gt;" style="html=1;whiteSpace=wrap;" parent="1" vertex="1">
          <mxGeometry x="492" y="1631" width="139" height="50" as="geometry" />
        </mxCell>
        <mxCell id="oy7IxXZ8f28WCVUuLW1C-32" value="&lt;b&gt;InitContentAdapter&lt;/b&gt;" style="html=1;whiteSpace=wrap;" parent="1" vertex="1">
          <mxGeometry x="920" y="930" width="140" height="50" as="geometry" />
        </mxCell>
        <mxCell id="oy7IxXZ8f28WCVUuLW1C-36" value="" style="endArrow=open;endSize=12;dashed=1;html=1;rounded=0;entryX=0;entryY=0.5;entryDx=0;entryDy=0;exitX=1;exitY=0.5;exitDx=0;exitDy=0;" parent="1" source="oy7IxXZ8f28WCVUuLW1C-3" target="7GGK_su0vlyQCkf6kP1s-5" edge="1">
          <mxGeometry width="160" relative="1" as="geometry">
            <mxPoint x="990" y="800" as="sourcePoint" />
            <mxPoint x="1052" y="840" as="targetPoint" />
          </mxGeometry>
        </mxCell>
        <mxCell id="oy7IxXZ8f28WCVUuLW1C-38" value="" style="endArrow=open;endSize=12;dashed=1;html=1;rounded=0;exitX=0.5;exitY=1;exitDx=0;exitDy=0;entryX=0;entryY=0.5;entryDx=0;entryDy=0;" parent="1" source="oy7IxXZ8f28WCVUuLW1C-32" target="oy7IxXZ8f28WCVUuLW1C-115" edge="1">
          <mxGeometry x="-0.0113" width="160" relative="1" as="geometry">
            <mxPoint x="985.0799999999999" y="1039.9000000000003" as="sourcePoint" />
            <mxPoint x="989.8717948717949" y="1217" as="targetPoint" />
            <mxPoint as="offset" />
          </mxGeometry>
        </mxCell>
        <mxCell id="oy7IxXZ8f28WCVUuLW1C-39" value="&lt;b&gt;EntityCreator&lt;/b&gt;" style="html=1;whiteSpace=wrap;" parent="1" vertex="1">
          <mxGeometry x="1280" y="1230" width="200" height="50" as="geometry" />
        </mxCell>
        <mxCell id="oy7IxXZ8f28WCVUuLW1C-41" value="&lt;b&gt;DestinationBlock&lt;/b&gt;" style="html=1;whiteSpace=wrap;" parent="1" vertex="1">
          <mxGeometry x="890" y="1480" width="140" height="50" as="geometry" />
        </mxCell>
        <mxCell id="oy7IxXZ8f28WCVUuLW1C-46" value="&lt;b&gt;MovableNode&lt;/b&gt;" style="html=1;whiteSpace=wrap;" parent="1" vertex="1">
          <mxGeometry x="400" y="1098" width="140" height="50" as="geometry" />
        </mxCell>
        <mxCell id="oy7IxXZ8f28WCVUuLW1C-48" value="&lt;b&gt;EnemyNode&lt;/b&gt;" style="html=1;whiteSpace=wrap;" parent="1" vertex="1">
          <mxGeometry x="510" y="1220" width="140" height="50" as="geometry" />
        </mxCell>
        <mxCell id="oy7IxXZ8f28WCVUuLW1C-49" value="" style="endArrow=block;endSize=16;endFill=0;html=1;rounded=0;entryX=0.5;entryY=1;entryDx=0;entryDy=0;exitX=0.5;exitY=0;exitDx=0;exitDy=0;edgeStyle=orthogonalEdgeStyle;" parent="1" source="oy7IxXZ8f28WCVUuLW1C-48" target="oy7IxXZ8f28WCVUuLW1C-46" edge="1">
          <mxGeometry x="0.0144" width="160" relative="1" as="geometry">
            <mxPoint x="544" y="1100" as="sourcePoint" />
            <mxPoint x="530" y="990" as="targetPoint" />
            <mxPoint as="offset" />
          </mxGeometry>
        </mxCell>
        <mxCell id="oy7IxXZ8f28WCVUuLW1C-50" value="&lt;div&gt;«interface»&lt;b&gt;&lt;/b&gt;&lt;/div&gt;&lt;b&gt;Movable&lt;/b&gt;" style="html=1;whiteSpace=wrap;" parent="1" vertex="1">
          <mxGeometry x="400" y="1010" width="140" height="50" as="geometry" />
        </mxCell>
        <mxCell id="oy7IxXZ8f28WCVUuLW1C-53" value="&lt;b&gt;NoMove&lt;/b&gt;" style="html=1;whiteSpace=wrap;" parent="1" vertex="1">
          <mxGeometry x="490" y="910" width="140" height="50" as="geometry" />
        </mxCell>
        <mxCell id="oy7IxXZ8f28WCVUuLW1C-57" value="&lt;b&gt;FeatureBlock&lt;/b&gt;" style="html=1;whiteSpace=wrap;" parent="1" vertex="1">
          <mxGeometry x="740" y="1480" width="140" height="50" as="geometry" />
        </mxCell>
        <mxCell id="oy7IxXZ8f28WCVUuLW1C-65" value="&lt;b&gt;FireDragonNode&lt;/b&gt;" style="html=1;whiteSpace=wrap;" parent="1" vertex="1">
          <mxGeometry x="589" y="1350" width="140" height="50" as="geometry" />
        </mxCell>
        <mxCell id="oy7IxXZ8f28WCVUuLW1C-68" value="&lt;b&gt;FlyingCarpetBlock&lt;/b&gt;" style="html=1;whiteSpace=wrap;" parent="1" vertex="1">
          <mxGeometry x="290" y="1480" width="140" height="50" as="geometry" />
        </mxCell>
        <mxCell id="oy7IxXZ8f28WCVUuLW1C-70" value="&lt;b&gt;FlyingCarpetNode&lt;/b&gt;" style="html=1;whiteSpace=wrap;" parent="1" vertex="1">
          <mxGeometry x="289" y="1350" width="140" height="50" as="geometry" />
        </mxCell>
        <mxCell id="oy7IxXZ8f28WCVUuLW1C-73" value="&lt;b&gt;MovableObjectNode&lt;/b&gt;" style="html=1;whiteSpace=wrap;" parent="1" vertex="1">
          <mxGeometry x="289" y="1220" width="140" height="50" as="geometry" />
        </mxCell>
        <mxCell id="oy7IxXZ8f28WCVUuLW1C-75" style="edgeStyle=orthogonalEdgeStyle;rounded=0;orthogonalLoop=1;jettySize=auto;html=1;exitX=0.5;exitY=1;exitDx=0;exitDy=0;" parent="1" source="oy7IxXZ8f28WCVUuLW1C-65" target="oy7IxXZ8f28WCVUuLW1C-65" edge="1">
          <mxGeometry relative="1" as="geometry" />
        </mxCell>
        <mxCell id="oy7IxXZ8f28WCVUuLW1C-76" value="&lt;b&gt;MummyNode&lt;/b&gt;" style="html=1;whiteSpace=wrap;" parent="1" vertex="1">
          <mxGeometry x="439" y="1350" width="140" height="50" as="geometry" />
        </mxCell>
        <mxCell id="oy7IxXZ8f28WCVUuLW1C-77" value="&lt;b&gt;MummyBlock&lt;/b&gt;" style="html=1;whiteSpace=wrap;" parent="1" vertex="1">
          <mxGeometry x="440" y="1480" width="140" height="50" as="geometry" />
        </mxCell>
        <mxCell id="oy7IxXZ8f28WCVUuLW1C-82" value="&lt;b&gt;ObstacleBlock&lt;/b&gt;" style="html=1;whiteSpace=wrap;" parent="1" vertex="1">
          <mxGeometry x="1190" y="1480" width="140" height="50" as="geometry" />
        </mxCell>
        <mxCell id="oy7IxXZ8f28WCVUuLW1C-85" value="&lt;b&gt;PlayerBlock&lt;/b&gt;" style="html=1;whiteSpace=wrap;" parent="1" vertex="1">
          <mxGeometry x="1340" y="1480" width="140" height="50" as="geometry" />
        </mxCell>
        <mxCell id="oy7IxXZ8f28WCVUuLW1C-88" value="" style="endArrow=open;endSize=12;dashed=1;html=1;rounded=0;exitX=0;exitY=0.5;exitDx=0;exitDy=0;entryX=1;entryY=0.5;entryDx=0;entryDy=0;" parent="1" source="oy7IxXZ8f28WCVUuLW1C-17" target="oy7IxXZ8f28WCVUuLW1C-89" edge="1">
          <mxGeometry x="0.002" width="160" relative="1" as="geometry">
            <mxPoint x="987.0999999999999" y="538.6000000000001" as="sourcePoint" />
            <mxPoint x="987" y="480" as="targetPoint" />
            <Array as="points" />
            <mxPoint as="offset" />
          </mxGeometry>
        </mxCell>
        <mxCell id="oy7IxXZ8f28WCVUuLW1C-89" value="&lt;b&gt;ScoreManager&lt;/b&gt;" style="html=1;whiteSpace=wrap;" parent="1" vertex="1">
          <mxGeometry x="919" y="440" width="140" height="50" as="geometry" />
        </mxCell>
        <mxCell id="oy7IxXZ8f28WCVUuLW1C-90" value="&lt;b&gt;Score&lt;/b&gt;" style="html=1;whiteSpace=wrap;" parent="1" vertex="1">
          <mxGeometry x="920" y="610" width="140" height="50" as="geometry" />
        </mxCell>
        <mxCell id="oy7IxXZ8f28WCVUuLW1C-91" value="" style="endArrow=open;endSize=12;dashed=1;html=1;rounded=0;exitX=0.5;exitY=0;exitDx=0;exitDy=0;entryX=0.5;entryY=0;entryDx=0;entryDy=0;" parent="1" source="oy7IxXZ8f28WCVUuLW1C-109" target="oy7IxXZ8f28WCVUuLW1C-90" edge="1">
          <mxGeometry width="160" relative="1" as="geometry">
            <mxPoint x="882" y="578" as="sourcePoint" />
            <mxPoint x="853" y="506" as="targetPoint" />
          </mxGeometry>
        </mxCell>
        <mxCell id="oy7IxXZ8f28WCVUuLW1C-92" value="&lt;b&gt;SupplyBlock&lt;/b&gt;" style="html=1;whiteSpace=wrap;" parent="1" vertex="1">
          <mxGeometry x="1040" y="1480" width="140" height="50" as="geometry" />
        </mxCell>
        <mxCell id="oy7IxXZ8f28WCVUuLW1C-100" value="&lt;b&gt;InitGameUi&lt;/b&gt;" style="html=1;whiteSpace=wrap;" parent="1" vertex="1">
          <mxGeometry x="698.5" y="962" width="141" height="50" as="geometry" />
        </mxCell>
        <mxCell id="oy7IxXZ8f28WCVUuLW1C-102" value="&lt;b&gt;Counter&lt;/b&gt;" style="html=1;whiteSpace=wrap;" parent="1" vertex="1">
          <mxGeometry x="700" y="1052" width="140" height="50" as="geometry" />
        </mxCell>
        <mxCell id="oy7IxXZ8f28WCVUuLW1C-103" value="" style="endArrow=open;endSize=12;dashed=1;html=1;rounded=0;exitX=0.5;exitY=1;exitDx=0;exitDy=0;entryX=0.5;entryY=0;entryDx=0;entryDy=0;" parent="1" source="oy7IxXZ8f28WCVUuLW1C-100" target="oy7IxXZ8f28WCVUuLW1C-102" edge="1">
          <mxGeometry width="160" relative="1" as="geometry">
            <mxPoint x="647" y="896" as="sourcePoint" />
            <mxPoint x="744" y="866" as="targetPoint" />
          </mxGeometry>
        </mxCell>
        <mxCell id="oy7IxXZ8f28WCVUuLW1C-104" value="&lt;b&gt;IntArrayIterator&lt;/b&gt;" style="html=1;whiteSpace=wrap;" parent="1" vertex="1">
          <mxGeometry x="699" y="880" width="140" height="50" as="geometry" />
        </mxCell>
        <mxCell id="oy7IxXZ8f28WCVUuLW1C-106" value="" style="endArrow=open;endSize=12;dashed=1;html=1;rounded=0;exitX=0;exitY=0.5;exitDx=0;exitDy=0;entryX=1;entryY=0.5;entryDx=0;entryDy=0;" parent="1" source="oy7IxXZ8f28WCVUuLW1C-31" target="oy7IxXZ8f28WCVUuLW1C-107" edge="1">
          <mxGeometry x="-0.0131" width="160" relative="1" as="geometry">
            <mxPoint x="841" y="1603" as="sourcePoint" />
            <mxPoint x="556" y="1563" as="targetPoint" />
            <Array as="points" />
            <mxPoint as="offset" />
          </mxGeometry>
        </mxCell>
        <mxCell id="oy7IxXZ8f28WCVUuLW1C-107" value="&lt;b&gt;RandomNumberGenerator&lt;/b&gt;" style="html=1;whiteSpace=wrap;" parent="1" vertex="1">
          <mxGeometry x="289" y="1631" width="180" height="50" as="geometry" />
        </mxCell>
        <mxCell id="oy7IxXZ8f28WCVUuLW1C-110" value="&lt;b&gt;LevelData&lt;/b&gt;" style="html=1;whiteSpace=wrap;" parent="1" vertex="1">
          <mxGeometry x="699" y="782" width="140" height="50" as="geometry" />
        </mxCell>
        <mxCell id="oy7IxXZ8f28WCVUuLW1C-114" value="&lt;div&gt;«interface»&lt;/div&gt;&lt;div&gt;&lt;b&gt;Observer&lt;/b&gt;&lt;/div&gt;" style="html=1;whiteSpace=wrap;" parent="1" vertex="1">
          <mxGeometry x="300" y="1868" width="140" height="50" as="geometry" />
        </mxCell>
        <mxCell id="oy7IxXZ8f28WCVUuLW1C-115" value="&lt;b&gt;EntitySelector&lt;/b&gt;" style="html=1;whiteSpace=wrap;" parent="1" vertex="1">
          <mxGeometry x="1101" y="1230" width="140" height="50" as="geometry" />
        </mxCell>
        <mxCell id="oy7IxXZ8f28WCVUuLW1C-118" value="" style="endArrow=block;dashed=1;endFill=0;endSize=12;html=1;rounded=0;entryX=0.5;entryY=0;entryDx=0;entryDy=0;edgeStyle=orthogonalEdgeStyle;exitX=0.5;exitY=1;exitDx=0;exitDy=0;" parent="1" source="oy7IxXZ8f28WCVUuLW1C-53" target="oy7IxXZ8f28WCVUuLW1C-50" edge="1">
          <mxGeometry width="160" relative="1" as="geometry">
            <mxPoint x="520" y="824.25" as="sourcePoint" />
            <mxPoint x="430" y="823" as="targetPoint" />
            <Array as="points" />
          </mxGeometry>
        </mxCell>
        <mxCell id="oy7IxXZ8f28WCVUuLW1C-119" value="" style="endArrow=block;dashed=1;endFill=0;endSize=12;html=1;rounded=0;entryX=0.5;entryY=0;entryDx=0;entryDy=0;edgeStyle=orthogonalEdgeStyle;exitX=0.5;exitY=1;exitDx=0;exitDy=0;" parent="1" source="oy7IxXZ8f28WCVUuLW1C-52" target="oy7IxXZ8f28WCVUuLW1C-50" edge="1">
          <mxGeometry width="160" relative="1" as="geometry">
            <mxPoint x="590" y="958" as="sourcePoint" />
            <mxPoint x="480" y="1088" as="targetPoint" />
            <Array as="points" />
          </mxGeometry>
        </mxCell>
        <mxCell id="oy7IxXZ8f28WCVUuLW1C-131" value="" style="endArrow=open;endSize=12;dashed=1;html=1;rounded=0;fontSize=12;curved=1;entryX=0.5;entryY=0;entryDx=0;entryDy=0;exitX=0.5;exitY=1;exitDx=0;exitDy=0;" parent="1" source="oy7IxXZ8f28WCVUuLW1C-115" target="oy7IxXZ8f28WCVUuLW1C-95" edge="1">
          <mxGeometry width="160" relative="1" as="geometry">
            <mxPoint x="797" y="1150" as="sourcePoint" />
            <mxPoint x="957" y="1150" as="targetPoint" />
          </mxGeometry>
        </mxCell>
        <mxCell id="oy7IxXZ8f28WCVUuLW1C-132" value="" style="endArrow=open;endSize=12;dashed=1;html=1;rounded=0;fontSize=12;curved=1;exitX=0.5;exitY=1;exitDx=0;exitDy=0;" parent="1" source="oy7IxXZ8f28WCVUuLW1C-115" target="oy7IxXZ8f28WCVUuLW1C-43" edge="1">
          <mxGeometry width="160" relative="1" as="geometry">
            <mxPoint x="911" y="950" as="sourcePoint" />
            <mxPoint x="843" y="1320" as="targetPoint" />
          </mxGeometry>
        </mxCell>
        <mxCell id="oy7IxXZ8f28WCVUuLW1C-133" value="" style="endArrow=open;endSize=12;dashed=1;html=1;rounded=0;fontSize=12;curved=1;entryX=0.5;entryY=0;entryDx=0;entryDy=0;exitX=0.5;exitY=1;exitDx=0;exitDy=0;" parent="1" source="oy7IxXZ8f28WCVUuLW1C-39" target="oy7IxXZ8f28WCVUuLW1C-41" edge="1">
          <mxGeometry width="160" relative="1" as="geometry">
            <mxPoint x="911" y="950" as="sourcePoint" />
            <mxPoint x="843" y="1320" as="targetPoint" />
            <mxPoint as="offset" />
          </mxGeometry>
        </mxCell>
        <mxCell id="oy7IxXZ8f28WCVUuLW1C-134" value="" style="endArrow=open;endSize=12;dashed=1;html=1;rounded=0;fontSize=12;curved=1;exitX=0.5;exitY=1;exitDx=0;exitDy=0;entryX=0.5;entryY=0;entryDx=0;entryDy=0;" parent="1" source="oy7IxXZ8f28WCVUuLW1C-39" target="oy7IxXZ8f28WCVUuLW1C-57" edge="1">
          <mxGeometry width="160" relative="1" as="geometry">
            <mxPoint x="911" y="950" as="sourcePoint" />
            <mxPoint x="1014" y="1320" as="targetPoint" />
          </mxGeometry>
        </mxCell>
        <mxCell id="oy7IxXZ8f28WCVUuLW1C-135" value="" style="endArrow=open;endSize=12;dashed=1;html=1;rounded=0;fontSize=12;curved=1;exitX=0.5;exitY=1;exitDx=0;exitDy=0;entryX=0.5;entryY=0;entryDx=0;entryDy=0;" parent="1" source="oy7IxXZ8f28WCVUuLW1C-115" target="oy7IxXZ8f28WCVUuLW1C-60" edge="1">
          <mxGeometry width="160" relative="1" as="geometry">
            <mxPoint x="911" y="950" as="sourcePoint" />
            <mxPoint x="1181" y="1320" as="targetPoint" />
          </mxGeometry>
        </mxCell>
        <mxCell id="oy7IxXZ8f28WCVUuLW1C-140" value="" style="endArrow=open;endSize=12;dashed=1;html=1;rounded=0;fontSize=12;curved=1;exitX=0.5;exitY=1;exitDx=0;exitDy=0;entryX=0.5;entryY=0;entryDx=0;entryDy=0;" parent="1" source="oy7IxXZ8f28WCVUuLW1C-39" target="oy7IxXZ8f28WCVUuLW1C-68" edge="1">
          <mxGeometry x="0.0016" width="160" relative="1" as="geometry">
            <mxPoint x="911" y="950" as="sourcePoint" />
            <mxPoint x="1261" y="1215" as="targetPoint" />
            <mxPoint as="offset" />
          </mxGeometry>
        </mxCell>
        <mxCell id="oy7IxXZ8f28WCVUuLW1C-141" value="" style="endArrow=open;endSize=12;dashed=1;html=1;rounded=0;fontSize=12;curved=1;exitX=0.5;exitY=1;exitDx=0;exitDy=0;entryX=0.5;entryY=0;entryDx=0;entryDy=0;" parent="1" source="oy7IxXZ8f28WCVUuLW1C-39" target="oy7IxXZ8f28WCVUuLW1C-77" edge="1">
          <mxGeometry width="160" relative="1" as="geometry">
            <mxPoint x="911" y="950" as="sourcePoint" />
            <mxPoint x="161" y="1345" as="targetPoint" />
          </mxGeometry>
        </mxCell>
        <mxCell id="oy7IxXZ8f28WCVUuLW1C-142" value="" style="endArrow=open;endSize=12;dashed=1;html=1;rounded=0;fontSize=12;curved=1;exitX=0.5;exitY=1;exitDx=0;exitDy=0;entryX=0.5;entryY=0;entryDx=0;entryDy=0;" parent="1" source="oy7IxXZ8f28WCVUuLW1C-39" target="oy7IxXZ8f28WCVUuLW1C-82" edge="1">
          <mxGeometry width="160" relative="1" as="geometry">
            <mxPoint x="911" y="950" as="sourcePoint" />
            <mxPoint x="1261" y="1075" as="targetPoint" />
          </mxGeometry>
        </mxCell>
        <mxCell id="oy7IxXZ8f28WCVUuLW1C-144" value="" style="endArrow=open;endSize=12;dashed=1;html=1;rounded=0;fontSize=12;curved=1;entryX=0.5;entryY=0;entryDx=0;entryDy=0;exitX=0.5;exitY=1;exitDx=0;exitDy=0;" parent="1" source="oy7IxXZ8f28WCVUuLW1C-39" target="oy7IxXZ8f28WCVUuLW1C-92" edge="1">
          <mxGeometry x="0.0187" y="-2" width="160" relative="1" as="geometry">
            <mxPoint x="967" y="931" as="sourcePoint" />
            <mxPoint x="1261" y="935" as="targetPoint" />
            <mxPoint as="offset" />
          </mxGeometry>
        </mxCell>
        <mxCell id="oy7IxXZ8f28WCVUuLW1C-155" value="" style="endArrow=block;endSize=16;endFill=0;html=1;rounded=0;fontSize=12;exitX=0.5;exitY=0;exitDx=0;exitDy=0;entryX=0.5;entryY=1;entryDx=0;entryDy=0;edgeStyle=orthogonalEdgeStyle;" parent="1" source="oy7IxXZ8f28WCVUuLW1C-65" target="oy7IxXZ8f28WCVUuLW1C-48" edge="1">
          <mxGeometry x="0.0031" width="160" relative="1" as="geometry">
            <mxPoint x="627" y="1320" as="sourcePoint" />
            <mxPoint x="393" y="1090" as="targetPoint" />
            <mxPoint as="offset" />
            <Array as="points">
              <mxPoint x="659" y="1310" />
              <mxPoint x="580" y="1310" />
            </Array>
          </mxGeometry>
        </mxCell>
        <mxCell id="oy7IxXZ8f28WCVUuLW1C-156" value="" style="endArrow=block;endSize=16;endFill=0;html=1;rounded=0;fontSize=12;exitX=0.5;exitY=0;exitDx=0;exitDy=0;entryX=0.5;entryY=1;entryDx=0;entryDy=0;edgeStyle=orthogonalEdgeStyle;" parent="1" source="oy7IxXZ8f28WCVUuLW1C-76" target="oy7IxXZ8f28WCVUuLW1C-48" edge="1">
          <mxGeometry x="0.0031" width="160" relative="1" as="geometry">
            <mxPoint x="408" y="1320" as="sourcePoint" />
            <mxPoint x="393" y="1090" as="targetPoint" />
            <mxPoint as="offset" />
            <Array as="points">
              <mxPoint x="509" y="1310" />
              <mxPoint x="580" y="1310" />
            </Array>
          </mxGeometry>
        </mxCell>
        <mxCell id="oy7IxXZ8f28WCVUuLW1C-157" value="" style="endArrow=open;endSize=12;dashed=1;html=1;rounded=0;fontSize=12;curved=1;entryX=0.5;entryY=0;entryDx=0;entryDy=0;exitX=0.5;exitY=1;exitDx=0;exitDy=0;" parent="1" source="oy7IxXZ8f28WCVUuLW1C-115" target="oy7IxXZ8f28WCVUuLW1C-65" edge="1">
          <mxGeometry width="160" relative="1" as="geometry">
            <mxPoint x="911" y="950" as="sourcePoint" />
            <mxPoint x="627" y="1320" as="targetPoint" />
            <mxPoint as="offset" />
          </mxGeometry>
        </mxCell>
        <mxCell id="oy7IxXZ8f28WCVUuLW1C-158" value="" style="endArrow=open;endSize=12;dashed=1;html=1;rounded=0;fontSize=12;curved=1;entryX=0.5;entryY=0;entryDx=0;entryDy=0;exitX=0.5;exitY=1;exitDx=0;exitDy=0;" parent="1" source="oy7IxXZ8f28WCVUuLW1C-115" target="oy7IxXZ8f28WCVUuLW1C-76" edge="1">
          <mxGeometry width="160" relative="1" as="geometry">
            <mxPoint x="911" y="950" as="sourcePoint" />
            <mxPoint x="408" y="1320" as="targetPoint" />
            <mxPoint as="offset" />
          </mxGeometry>
        </mxCell>
        <mxCell id="oy7IxXZ8f28WCVUuLW1C-162" value="" style="endArrow=open;endSize=12;dashed=1;html=1;rounded=0;fontSize=12;curved=1;exitX=0.5;exitY=1;exitDx=0;exitDy=0;entryX=0.5;entryY=0;entryDx=0;entryDy=0;" parent="1" source="oy7IxXZ8f28WCVUuLW1C-39" target="oy7IxXZ8f28WCVUuLW1C-62" edge="1">
          <mxGeometry width="160" relative="1" as="geometry">
            <mxPoint x="901" y="940" as="sourcePoint" />
            <mxPoint x="657" y="1439" as="targetPoint" />
          </mxGeometry>
        </mxCell>
        <mxCell id="oy7IxXZ8f28WCVUuLW1C-62" value="&lt;b&gt;FireDragonBlock&lt;/b&gt;" style="html=1;whiteSpace=wrap;" parent="1" vertex="1">
          <mxGeometry x="590" y="1480" width="140" height="50" as="geometry" />
        </mxCell>
        <mxCell id="oy7IxXZ8f28WCVUuLW1C-167" value="" style="endArrow=block;endSize=16;endFill=0;html=1;rounded=0;entryX=0.5;entryY=1;entryDx=0;entryDy=0;exitX=0.5;exitY=0;exitDx=0;exitDy=0;" parent="1" source="oy7IxXZ8f28WCVUuLW1C-70" target="oy7IxXZ8f28WCVUuLW1C-73" edge="1">
          <mxGeometry x="0.0144" width="160" relative="1" as="geometry">
            <mxPoint x="393" y="1040" as="sourcePoint" />
            <mxPoint x="393" y="980" as="targetPoint" />
            <mxPoint as="offset" />
          </mxGeometry>
        </mxCell>
        <mxCell id="oy7IxXZ8f28WCVUuLW1C-52" value="&lt;b&gt;LineMove&lt;/b&gt;" style="html=1;whiteSpace=wrap;" parent="1" vertex="1">
          <mxGeometry x="299" y="910" width="140" height="50" as="geometry" />
        </mxCell>
        <mxCell id="oy7IxXZ8f28WCVUuLW1C-169" value="" style="endArrow=block;endSize=16;endFill=0;html=1;rounded=0;entryX=0.5;entryY=1;entryDx=0;entryDy=0;exitX=0.5;exitY=0;exitDx=0;exitDy=0;edgeStyle=orthogonalEdgeStyle;" parent="1" source="oy7IxXZ8f28WCVUuLW1C-73" target="oy7IxXZ8f28WCVUuLW1C-46" edge="1">
          <mxGeometry x="0.0144" width="160" relative="1" as="geometry">
            <mxPoint x="494" y="1050" as="sourcePoint" />
            <mxPoint x="494" y="990" as="targetPoint" />
            <mxPoint as="offset" />
          </mxGeometry>
        </mxCell>
        <mxCell id="oy7IxXZ8f28WCVUuLW1C-179" value="" style="endArrow=open;endSize=12;dashed=1;html=1;rounded=0;fontSize=12;entryX=1;entryY=0.5;entryDx=0;entryDy=0;exitX=0;exitY=0.5;exitDx=0;exitDy=0;edgeStyle=orthogonalEdgeStyle;" parent="1" source="oy7IxXZ8f28WCVUuLW1C-32" target="oy7IxXZ8f28WCVUuLW1C-100" edge="1">
          <mxGeometry x="-0.0016" width="160" relative="1" as="geometry">
            <mxPoint x="1075" y="845" as="sourcePoint" />
            <mxPoint x="1149" y="770" as="targetPoint" />
            <mxPoint as="offset" />
          </mxGeometry>
        </mxCell>
        <mxCell id="BXo3TNcHROKyXZdvnCkh-4" value="" style="endArrow=open;endSize=12;dashed=1;html=1;rounded=0;fontSize=12;curved=1;exitX=0.5;exitY=1;exitDx=0;exitDy=0;entryX=0.5;entryY=0;entryDx=0;entryDy=0;" parent="1" source="oy7IxXZ8f28WCVUuLW1C-115" target="oy7IxXZ8f28WCVUuLW1C-60" edge="1">
          <mxGeometry width="160" relative="1" as="geometry">
            <mxPoint x="888" y="1092" as="sourcePoint" />
            <mxPoint x="957" y="1430" as="targetPoint" />
          </mxGeometry>
        </mxCell>
        <mxCell id="oy7IxXZ8f28WCVUuLW1C-60" value="&lt;b&gt;FeatureNode&lt;/b&gt;" style="html=1;whiteSpace=wrap;" parent="1" vertex="1">
          <mxGeometry x="739" y="1350" width="140" height="50" as="geometry" />
        </mxCell>
        <mxCell id="oy7IxXZ8f28WCVUuLW1C-43" value="&lt;b&gt;DestinationNode&lt;/b&gt;" style="html=1;whiteSpace=wrap;" parent="1" vertex="1">
          <mxGeometry x="890" y="1350" width="140" height="50" as="geometry" />
        </mxCell>
        <mxCell id="BXo3TNcHROKyXZdvnCkh-17" value="" style="endArrow=block;endSize=16;endFill=0;html=1;rounded=0;fontSize=12;exitX=0.5;exitY=0;exitDx=0;exitDy=0;edgeStyle=orthogonalEdgeStyle;entryX=0.5;entryY=1;entryDx=0;entryDy=0;" parent="1" source="oy7IxXZ8f28WCVUuLW1C-85" target="oy7IxXZ8f28WCVUuLW1C-44" edge="1">
          <mxGeometry x="0.0014" width="160" relative="1" as="geometry">
            <mxPoint x="1267" y="1499" as="sourcePoint" />
            <mxPoint x="883" y="1570" as="targetPoint" />
            <mxPoint as="offset" />
          </mxGeometry>
        </mxCell>
        <mxCell id="BXo3TNcHROKyXZdvnCkh-18" value="" style="endArrow=open;endSize=12;dashed=1;html=1;rounded=0;fontSize=12;curved=1;entryX=0.5;entryY=0;entryDx=0;entryDy=0;exitX=0.5;exitY=1;exitDx=0;exitDy=0;" parent="1" source="oy7IxXZ8f28WCVUuLW1C-115" target="oy7IxXZ8f28WCVUuLW1C-70" edge="1">
          <mxGeometry width="160" relative="1" as="geometry">
            <mxPoint x="899" y="1250" as="sourcePoint" />
            <mxPoint x="517" y="1360" as="targetPoint" />
            <mxPoint as="offset" />
          </mxGeometry>
        </mxCell>
        <mxCell id="BXo3TNcHROKyXZdvnCkh-31" value="&lt;div&gt;&lt;b&gt;Subject&lt;/b&gt;&lt;/div&gt;" style="html=1;whiteSpace=wrap;" parent="1" vertex="1">
          <mxGeometry x="300" y="1958" width="140" height="50" as="geometry" />
        </mxCell>
        <mxCell id="BXo3TNcHROKyXZdvnCkh-32" value="" style="endArrow=block;endSize=16;endFill=0;html=1;rounded=0;entryX=1;entryY=0.5;entryDx=0;entryDy=0;exitX=0;exitY=0.5;exitDx=0;exitDy=0;" parent="1" source="oy7IxXZ8f28WCVUuLW1C-24" target="BXo3TNcHROKyXZdvnCkh-31" edge="1">
          <mxGeometry width="160" relative="1" as="geometry">
            <mxPoint x="501" y="1903" as="sourcePoint" />
            <mxPoint x="442" y="1903" as="targetPoint" />
          </mxGeometry>
        </mxCell>
        <mxCell id="BXo3TNcHROKyXZdvnCkh-34" value="" style="endArrow=block;dashed=1;endFill=0;endSize=12;html=1;rounded=0;entryX=1;entryY=0.5;entryDx=0;entryDy=0;exitX=0;exitY=0.5;exitDx=0;exitDy=0;" parent="1" source="oy7IxXZ8f28WCVUuLW1C-26" target="oy7IxXZ8f28WCVUuLW1C-114" edge="1">
          <mxGeometry width="160" relative="1" as="geometry">
            <mxPoint x="402" y="2008" as="sourcePoint" />
            <mxPoint x="562" y="2008" as="targetPoint" />
          </mxGeometry>
        </mxCell>
        <mxCell id="BXo3TNcHROKyXZdvnCkh-39" value="" style="endArrow=open;endSize=12;dashed=1;html=1;rounded=0;exitX=0.5;exitY=0;exitDx=0;exitDy=0;entryX=0.5;entryY=1;entryDx=0;entryDy=0;" parent="1" source="oy7IxXZ8f28WCVUuLW1C-46" target="oy7IxXZ8f28WCVUuLW1C-50" edge="1">
          <mxGeometry width="160" relative="1" as="geometry">
            <mxPoint x="429" y="1028" as="sourcePoint" />
            <mxPoint x="579" y="1028" as="targetPoint" />
            <mxPoint y="1" as="offset" />
          </mxGeometry>
        </mxCell>
        <mxCell id="BXo3TNcHROKyXZdvnCkh-40" value="com.platformer.escape_beyond" style="shape=umlFrame;whiteSpace=wrap;html=1;pointerEvents=0;width=180;height=30;" parent="1" vertex="1">
          <mxGeometry x="-110" y="360" width="1660" height="1240" as="geometry" />
        </mxCell>
        <mxCell id="BXo3TNcHROKyXZdvnCkh-41" value="" style="endArrow=diamondThin;endFill=0;endSize=24;html=1;rounded=0;exitX=0.5;exitY=1;exitDx=0;exitDy=0;entryX=0.5;entryY=0;entryDx=0;entryDy=0;" parent="1" source="oy7IxXZ8f28WCVUuLW1C-114" target="BXo3TNcHROKyXZdvnCkh-31" edge="1">
          <mxGeometry width="160" relative="1" as="geometry">
            <mxPoint x="368" y="1948" as="sourcePoint" />
            <mxPoint x="528" y="1948" as="targetPoint" />
          </mxGeometry>
        </mxCell>
        <mxCell id="BXo3TNcHROKyXZdvnCkh-42" value="" style="endArrow=open;endSize=12;dashed=1;html=1;rounded=0;exitX=0.5;exitY=1;exitDx=0;exitDy=0;entryX=0.5;entryY=0;entryDx=0;entryDy=0;" parent="1" source="oy7IxXZ8f28WCVUuLW1C-26" target="oy7IxXZ8f28WCVUuLW1C-24" edge="1">
          <mxGeometry width="160" relative="1" as="geometry">
            <mxPoint x="378" y="1978" as="sourcePoint" />
            <mxPoint x="538" y="1978" as="targetPoint" />
          </mxGeometry>
        </mxCell>
        <mxCell id="BXo3TNcHROKyXZdvnCkh-46" value="" style="endArrow=diamondThin;endFill=1;endSize=24;html=1;rounded=0;entryX=0.5;entryY=1;entryDx=0;entryDy=0;" parent="1" source="oy7IxXZ8f28WCVUuLW1C-32" edge="1">
          <mxGeometry width="160" relative="1" as="geometry">
            <mxPoint x="1020" y="772" as="sourcePoint" />
            <mxPoint x="989" y="892" as="targetPoint" />
          </mxGeometry>
        </mxCell>
        <mxCell id="BXo3TNcHROKyXZdvnCkh-58" value="" style="endArrow=open;endSize=12;dashed=1;html=1;rounded=0;exitX=0;exitY=0.5;exitDx=0;exitDy=0;entryX=1;entryY=0.5;entryDx=0;entryDy=0;" parent="1" source="oy7IxXZ8f28WCVUuLW1C-17" target="oy7IxXZ8f28WCVUuLW1C-109" edge="1">
          <mxGeometry x="0.002" width="160" relative="1" as="geometry">
            <mxPoint x="1289" y="445" as="sourcePoint" />
            <mxPoint x="1070" y="545" as="targetPoint" />
            <Array as="points" />
            <mxPoint as="offset" />
          </mxGeometry>
        </mxCell>
        <mxCell id="BXo3TNcHROKyXZdvnCkh-59" value="" style="endArrow=open;endSize=12;dashed=1;html=1;rounded=0;exitX=0;exitY=0.5;exitDx=0;exitDy=0;entryX=1;entryY=0.25;entryDx=0;entryDy=0;" parent="1" source="oy7IxXZ8f28WCVUuLW1C-17" target="oy7IxXZ8f28WCVUuLW1C-90" edge="1">
          <mxGeometry width="160" relative="1" as="geometry">
            <mxPoint x="1000" y="520" as="sourcePoint" />
            <mxPoint x="1000" y="480" as="targetPoint" />
          </mxGeometry>
        </mxCell>
        <mxCell id="BXo3TNcHROKyXZdvnCkh-62" value="" style="endArrow=open;endSize=12;dashed=1;html=1;rounded=0;exitX=0;exitY=0.5;exitDx=0;exitDy=0;entryX=0.5;entryY=0;entryDx=0;entryDy=0;" parent="1" source="oy7IxXZ8f28WCVUuLW1C-109" target="oy7IxXZ8f28WCVUuLW1C-28" edge="1">
          <mxGeometry x="0.002" width="160" relative="1" as="geometry">
            <mxPoint x="1000" y="569" as="sourcePoint" />
            <mxPoint x="780" y="520" as="targetPoint" />
            <Array as="points" />
            <mxPoint as="offset" />
          </mxGeometry>
        </mxCell>
        <mxCell id="BXo3TNcHROKyXZdvnCkh-64" value="" style="endArrow=diamondThin;endFill=1;endSize=24;html=1;rounded=0;entryX=0;entryY=0.5;entryDx=0;entryDy=0;exitX=1;exitY=0.5;exitDx=0;exitDy=0;edgeStyle=orthogonalEdgeStyle;" parent="1" source="oy7IxXZ8f28WCVUuLW1C-26" target="oy7IxXZ8f28WCVUuLW1C-22" edge="1">
          <mxGeometry width="160" relative="1" as="geometry">
            <mxPoint x="999" y="2232" as="sourcePoint" />
            <mxPoint x="1000" y="2113" as="targetPoint" />
          </mxGeometry>
        </mxCell>
        <mxCell id="BXo3TNcHROKyXZdvnCkh-66" value="" style="endArrow=diamondThin;endFill=1;endSize=24;html=1;rounded=0;entryX=0;entryY=0.5;entryDx=0;entryDy=0;exitX=1;exitY=0.5;exitDx=0;exitDy=0;edgeStyle=orthogonalEdgeStyle;" parent="1" source="oy7IxXZ8f28WCVUuLW1C-24" target="oy7IxXZ8f28WCVUuLW1C-22" edge="1">
          <mxGeometry width="160" relative="1" as="geometry">
            <mxPoint x="641" y="1903" as="sourcePoint" />
            <mxPoint x="710" y="1993" as="targetPoint" />
          </mxGeometry>
        </mxCell>
        <mxCell id="BXo3TNcHROKyXZdvnCkh-67" value="" style="endArrow=diamondThin;endFill=1;endSize=24;html=1;rounded=0;entryX=0;entryY=0.5;entryDx=0;entryDy=0;exitX=1;exitY=0.5;exitDx=0;exitDy=0;edgeStyle=orthogonalEdgeStyle;" parent="1" source="oy7IxXZ8f28WCVUuLW1C-31" target="oy7IxXZ8f28WCVUuLW1C-28" edge="1">
          <mxGeometry width="160" relative="1" as="geometry">
            <mxPoint x="999" y="2195" as="sourcePoint" />
            <mxPoint x="1000" y="2076" as="targetPoint" />
          </mxGeometry>
        </mxCell>
        <mxCell id="BXo3TNcHROKyXZdvnCkh-68" value="" style="endArrow=diamondThin;endFill=1;endSize=24;html=1;rounded=0;entryX=0;entryY=0.5;entryDx=0;entryDy=0;exitX=1;exitY=0.5;exitDx=0;exitDy=0;edgeStyle=orthogonalEdgeStyle;" parent="1" source="oy7IxXZ8f28WCVUuLW1C-30" target="oy7IxXZ8f28WCVUuLW1C-28" edge="1">
          <mxGeometry width="160" relative="1" as="geometry">
            <mxPoint x="572" y="619" as="sourcePoint" />
            <mxPoint x="710" y="709" as="targetPoint" />
          </mxGeometry>
        </mxCell>
        <mxCell id="BXo3TNcHROKyXZdvnCkh-73" value="" style="endArrow=open;endSize=12;dashed=1;html=1;rounded=0;fontSize=12;exitX=0;exitY=0.5;exitDx=0;exitDy=0;entryX=1;entryY=0.5;entryDx=0;entryDy=0;edgeStyle=orthogonalEdgeStyle;" parent="1" source="oy7IxXZ8f28WCVUuLW1C-32" target="oy7IxXZ8f28WCVUuLW1C-104" edge="1">
          <mxGeometry width="160" relative="1" as="geometry">
            <mxPoint x="929" y="901" as="sourcePoint" />
            <mxPoint x="850" y="816" as="targetPoint" />
          </mxGeometry>
        </mxCell>
        <mxCell id="BXo3TNcHROKyXZdvnCkh-74" value="" style="endArrow=diamondThin;endFill=0;endSize=24;html=1;rounded=0;entryX=0.5;entryY=0;entryDx=0;entryDy=0;exitX=0.65;exitY=0.998;exitDx=0;exitDy=0;exitPerimeter=0;" parent="1" source="oy7IxXZ8f28WCVUuLW1C-39" target="oy7IxXZ8f28WCVUuLW1C-44" edge="1">
          <mxGeometry width="160" relative="1" as="geometry">
            <mxPoint x="950" y="1080" as="sourcePoint" />
            <mxPoint x="1110" y="1080" as="targetPoint" />
          </mxGeometry>
        </mxCell>
        <mxCell id="BXo3TNcHROKyXZdvnCkh-79" value="" style="endArrow=block;endSize=16;endFill=0;html=1;rounded=0;fontSize=12;exitX=0.5;exitY=0;exitDx=0;exitDy=0;edgeStyle=orthogonalEdgeStyle;entryX=0.5;entryY=1;entryDx=0;entryDy=0;" parent="1" source="oy7IxXZ8f28WCVUuLW1C-82" target="oy7IxXZ8f28WCVUuLW1C-44" edge="1">
          <mxGeometry x="0.0014" width="160" relative="1" as="geometry">
            <mxPoint x="1421" y="1490" as="sourcePoint" />
            <mxPoint x="1410" y="1400" as="targetPoint" />
            <mxPoint as="offset" />
          </mxGeometry>
        </mxCell>
        <mxCell id="BXo3TNcHROKyXZdvnCkh-80" value="" style="endArrow=block;endSize=16;endFill=0;html=1;rounded=0;fontSize=12;exitX=0.5;exitY=0;exitDx=0;exitDy=0;edgeStyle=orthogonalEdgeStyle;entryX=0.5;entryY=1;entryDx=0;entryDy=0;" parent="1" source="oy7IxXZ8f28WCVUuLW1C-92" target="oy7IxXZ8f28WCVUuLW1C-44" edge="1">
          <mxGeometry x="0.0014" width="160" relative="1" as="geometry">
            <mxPoint x="1420" y="1490" as="sourcePoint" />
            <mxPoint x="1445" y="1400" as="targetPoint" />
            <mxPoint as="offset" />
          </mxGeometry>
        </mxCell>
        <mxCell id="BXo3TNcHROKyXZdvnCkh-81" value="" style="endArrow=block;endSize=16;endFill=0;html=1;rounded=0;fontSize=12;exitX=0.5;exitY=0;exitDx=0;exitDy=0;edgeStyle=orthogonalEdgeStyle;entryX=0.5;entryY=1;entryDx=0;entryDy=0;" parent="1" source="oy7IxXZ8f28WCVUuLW1C-41" target="oy7IxXZ8f28WCVUuLW1C-44" edge="1">
          <mxGeometry x="0.0014" width="160" relative="1" as="geometry">
            <mxPoint x="1120" y="1490" as="sourcePoint" />
            <mxPoint x="1445" y="1400" as="targetPoint" />
            <mxPoint as="offset" />
          </mxGeometry>
        </mxCell>
        <mxCell id="BXo3TNcHROKyXZdvnCkh-82" value="" style="endArrow=block;endSize=16;endFill=0;html=1;rounded=0;fontSize=12;exitX=0.5;exitY=0;exitDx=0;exitDy=0;edgeStyle=orthogonalEdgeStyle;entryX=0.5;entryY=1;entryDx=0;entryDy=0;" parent="1" source="oy7IxXZ8f28WCVUuLW1C-57" target="oy7IxXZ8f28WCVUuLW1C-44" edge="1">
          <mxGeometry x="0.0014" width="160" relative="1" as="geometry">
            <mxPoint x="970" y="1489" as="sourcePoint" />
            <mxPoint x="1420" y="1410" as="targetPoint" />
            <mxPoint as="offset" />
          </mxGeometry>
        </mxCell>
        <mxCell id="BXo3TNcHROKyXZdvnCkh-83" value="" style="endArrow=block;endSize=16;endFill=0;html=1;rounded=0;fontSize=12;exitX=0.5;exitY=0;exitDx=0;exitDy=0;edgeStyle=orthogonalEdgeStyle;entryX=0.5;entryY=1;entryDx=0;entryDy=0;" parent="1" source="oy7IxXZ8f28WCVUuLW1C-62" target="oy7IxXZ8f28WCVUuLW1C-44" edge="1">
          <mxGeometry x="0.0014" width="160" relative="1" as="geometry">
            <mxPoint x="819" y="1489" as="sourcePoint" />
            <mxPoint x="1420" y="1410" as="targetPoint" />
            <mxPoint as="offset" />
          </mxGeometry>
        </mxCell>
        <mxCell id="BXo3TNcHROKyXZdvnCkh-84" value="" style="endArrow=block;endSize=16;endFill=0;html=1;rounded=0;fontSize=12;exitX=0.5;exitY=0;exitDx=0;exitDy=0;edgeStyle=orthogonalEdgeStyle;entryX=0.5;entryY=1;entryDx=0;entryDy=0;" parent="1" source="oy7IxXZ8f28WCVUuLW1C-77" target="oy7IxXZ8f28WCVUuLW1C-44" edge="1">
          <mxGeometry x="0.0014" width="160" relative="1" as="geometry">
            <mxPoint x="669" y="1489" as="sourcePoint" />
            <mxPoint x="1420" y="1410" as="targetPoint" />
            <mxPoint as="offset" />
          </mxGeometry>
        </mxCell>
        <mxCell id="BXo3TNcHROKyXZdvnCkh-85" value="" style="endArrow=block;endSize=16;endFill=0;html=1;rounded=0;fontSize=12;exitX=0.5;exitY=0;exitDx=0;exitDy=0;edgeStyle=orthogonalEdgeStyle;entryX=0.5;entryY=1;entryDx=0;entryDy=0;" parent="1" source="oy7IxXZ8f28WCVUuLW1C-68" target="oy7IxXZ8f28WCVUuLW1C-44" edge="1">
          <mxGeometry x="0.0014" width="160" relative="1" as="geometry">
            <mxPoint x="519" y="1489" as="sourcePoint" />
            <mxPoint x="1420" y="1410" as="targetPoint" />
            <mxPoint as="offset" />
          </mxGeometry>
        </mxCell>
        <mxCell id="BXo3TNcHROKyXZdvnCkh-94" value="" style="endArrow=open;endSize=12;dashed=1;html=1;rounded=0;fontSize=12;curved=1;exitX=0.5;exitY=1;exitDx=0;exitDy=0;" parent="1" source="oy7IxXZ8f28WCVUuLW1C-39" edge="1">
          <mxGeometry width="160" relative="1" as="geometry">
            <mxPoint x="1070" y="1255" as="sourcePoint" />
            <mxPoint x="1410" y="1480" as="targetPoint" />
            <mxPoint as="offset" />
          </mxGeometry>
        </mxCell>
        <mxCell id="oy7IxXZ8f28WCVUuLW1C-44" value="&lt;b&gt;&lt;i&gt;Entity&lt;/i&gt;&lt;/b&gt;" style="html=1;whiteSpace=wrap;" parent="1" vertex="1">
          <mxGeometry x="1340" y="1350" width="140" height="50" as="geometry" />
        </mxCell>
        <mxCell id="oy7IxXZ8f28WCVUuLW1C-95" value="&lt;b&gt;SupplyNode&lt;/b&gt;" style="html=1;whiteSpace=wrap;" parent="1" vertex="1">
          <mxGeometry x="1040" y="1350" width="140" height="50" as="geometry" />
        </mxCell>
        <mxCell id="BXo3TNcHROKyXZdvnCkh-95" value="" style="endArrow=open;endSize=12;dashed=1;html=1;rounded=0;fontSize=12;curved=1;exitX=1;exitY=0.5;exitDx=0;exitDy=0;entryX=0;entryY=0.5;entryDx=0;entryDy=0;" parent="1" source="oy7IxXZ8f28WCVUuLW1C-102" target="7GGK_su0vlyQCkf6kP1s-5" edge="1">
          <mxGeometry width="160" relative="1" as="geometry">
            <mxPoint x="1290" y="1087" as="sourcePoint" />
            <mxPoint x="990" y="1092" as="targetPoint" />
            <mxPoint as="offset" />
          </mxGeometry>
        </mxCell>
        <mxCell id="BXo3TNcHROKyXZdvnCkh-97" value="&lt;b&gt;MusicManager&lt;/b&gt;" style="html=1;whiteSpace=wrap;" parent="1" vertex="1">
          <mxGeometry x="697.5" y="703" width="140" height="50" as="geometry" />
        </mxCell>
        <mxCell id="oy7IxXZ8f28WCVUuLW1C-33" value="&lt;b&gt;InitContent&lt;/b&gt;" style="html=1;whiteSpace=wrap;" parent="1" vertex="1">
          <mxGeometry x="919" y="843" width="140" height="50" as="geometry" />
        </mxCell>
        <mxCell id="7GGK_su0vlyQCkf6kP1s-5" value="&lt;b&gt;TimeManager&lt;/b&gt;" style="html=1;whiteSpace=wrap;" vertex="1" parent="1">
          <mxGeometry x="920" y="1032" width="140" height="50" as="geometry" />
        </mxCell>
        <mxCell id="7GGK_su0vlyQCkf6kP1s-6" value="" style="endArrow=open;endSize=12;dashed=1;html=1;rounded=0;entryX=0;entryY=0.5;entryDx=0;entryDy=0;exitX=1;exitY=0.5;exitDx=0;exitDy=0;" edge="1" parent="1" source="oy7IxXZ8f28WCVUuLW1C-3" target="7GGK_su0vlyQCkf6kP1s-2">
          <mxGeometry width="160" relative="1" as="geometry">
            <mxPoint x="1000" y="810" as="sourcePoint" />
            <mxPoint x="1160" y="880" as="targetPoint" />
          </mxGeometry>
        </mxCell>
        <mxCell id="7GGK_su0vlyQCkf6kP1s-7" style="edgeStyle=none;curved=1;rounded=0;orthogonalLoop=1;jettySize=auto;html=1;entryX=0.5;entryY=1;entryDx=0;entryDy=0;fontSize=12;startSize=8;endSize=8;" edge="1" parent="1">
          <mxGeometry relative="1" as="geometry">
            <mxPoint x="768.5" y="1859" as="sourcePoint" />
            <mxPoint x="768.5" y="1859" as="targetPoint" />
          </mxGeometry>
        </mxCell>
        <mxCell id="7GGK_su0vlyQCkf6kP1s-1" value="&lt;b&gt;SceneManager&lt;/b&gt;" style="html=1;whiteSpace=wrap;" vertex="1" parent="1">
          <mxGeometry x="920" y="676" width="140" height="50" as="geometry" />
        </mxCell>
        <mxCell id="7GGK_su0vlyQCkf6kP1s-24" value="" style="endArrow=open;endSize=12;dashed=1;html=1;rounded=0;fontSize=12;curved=1;entryX=0;entryY=0.5;entryDx=0;entryDy=0;exitX=1;exitY=0.5;exitDx=0;exitDy=0;" edge="1" parent="1" source="oy7IxXZ8f28WCVUuLW1C-100" target="7GGK_su0vlyQCkf6kP1s-5">
          <mxGeometry width="160" relative="1" as="geometry">
            <mxPoint x="850" y="997" as="sourcePoint" />
            <mxPoint x="1000" y="651" as="targetPoint" />
            <mxPoint as="offset" />
          </mxGeometry>
        </mxCell>
        <mxCell id="7GGK_su0vlyQCkf6kP1s-25" value="&lt;b&gt;GameManager&lt;/b&gt;" style="html=1;whiteSpace=wrap;" vertex="1" parent="1">
          <mxGeometry x="918" y="753" width="140" height="50" as="geometry" />
        </mxCell>
        <mxCell id="7GGK_su0vlyQCkf6kP1s-28" value="" style="endArrow=open;endSize=12;dashed=1;html=1;rounded=0;entryX=1;entryY=0.5;entryDx=0;entryDy=0;exitX=0;exitY=0.5;exitDx=0;exitDy=0;" edge="1" parent="1" source="7GGK_su0vlyQCkf6kP1s-25" target="BXo3TNcHROKyXZdvnCkh-97">
          <mxGeometry width="160" relative="1" as="geometry">
            <mxPoint x="848" y="597" as="sourcePoint" />
            <mxPoint x="929" y="767" as="targetPoint" />
          </mxGeometry>
        </mxCell>
        <mxCell id="7GGK_su0vlyQCkf6kP1s-30" value="" style="endArrow=open;endSize=12;dashed=1;html=1;rounded=0;exitX=0;exitY=0.5;exitDx=0;exitDy=0;entryX=1;entryY=0.5;entryDx=0;entryDy=0;edgeStyle=orthogonalEdgeStyle;" edge="1" parent="1" source="oy7IxXZ8f28WCVUuLW1C-1" target="7GGK_su0vlyQCkf6kP1s-1">
          <mxGeometry width="160" relative="1" as="geometry">
            <mxPoint x="1069" y="523" as="sourcePoint" />
            <mxPoint x="1120" y="523" as="targetPoint" />
            <Array as="points">
              <mxPoint x="1200" y="1021" />
              <mxPoint x="1200" y="701" />
            </Array>
          </mxGeometry>
        </mxCell>
        <mxCell id="7GGK_su0vlyQCkf6kP1s-31" value="" style="endArrow=open;endSize=12;dashed=1;html=1;rounded=0;exitX=0;exitY=0.5;exitDx=0;exitDy=0;entryX=1;entryY=0.5;entryDx=0;entryDy=0;" edge="1" parent="1" source="oy7IxXZ8f28WCVUuLW1C-1" target="7GGK_su0vlyQCkf6kP1s-25">
          <mxGeometry width="160" relative="1" as="geometry">
            <mxPoint x="1290" y="523" as="sourcePoint" />
            <mxPoint x="1070" y="785" as="targetPoint" />
          </mxGeometry>
        </mxCell>
        <mxCell id="7GGK_su0vlyQCkf6kP1s-32" value="" style="endArrow=open;endSize=12;dashed=1;html=1;rounded=0;exitX=0;exitY=0.5;exitDx=0;exitDy=0;entryX=1;entryY=0.5;entryDx=0;entryDy=0;edgeStyle=orthogonalEdgeStyle;" edge="1" parent="1" source="oy7IxXZ8f28WCVUuLW1C-5" target="7GGK_su0vlyQCkf6kP1s-1">
          <mxGeometry width="160" relative="1" as="geometry">
            <mxPoint x="1290" y="523" as="sourcePoint" />
            <mxPoint x="1070" y="785" as="targetPoint" />
            <Array as="points">
              <mxPoint x="1200" y="1087" />
              <mxPoint x="1200" y="701" />
            </Array>
          </mxGeometry>
        </mxCell>
        <mxCell id="7GGK_su0vlyQCkf6kP1s-33" value="" style="endArrow=open;endSize=12;dashed=1;html=1;rounded=0;entryX=1;entryY=0.5;entryDx=0;entryDy=0;exitX=0;exitY=0.5;exitDx=0;exitDy=0;" edge="1" parent="1" source="oy7IxXZ8f28WCVUuLW1C-5" target="7GGK_su0vlyQCkf6kP1s-25">
          <mxGeometry width="160" relative="1" as="geometry">
            <mxPoint x="1270" y="604" as="sourcePoint" />
            <mxPoint x="1070" y="785" as="targetPoint" />
          </mxGeometry>
        </mxCell>
        <mxCell id="7GGK_su0vlyQCkf6kP1s-34" value="" style="endArrow=open;endSize=12;dashed=1;html=1;rounded=0;entryX=1;entryY=0.5;entryDx=0;entryDy=0;exitX=0;exitY=0.5;exitDx=0;exitDy=0;" edge="1" parent="1" source="oy7IxXZ8f28WCVUuLW1C-15" target="7GGK_su0vlyQCkf6kP1s-2">
          <mxGeometry width="160" relative="1" as="geometry">
            <mxPoint x="1290" y="604" as="sourcePoint" />
            <mxPoint x="1070" y="855" as="targetPoint" />
          </mxGeometry>
        </mxCell>
        <mxCell id="7GGK_su0vlyQCkf6kP1s-35" value="" style="endArrow=open;endSize=12;dashed=1;html=1;rounded=0;exitX=0;exitY=0.5;exitDx=0;exitDy=0;entryX=1;entryY=0.5;entryDx=0;entryDy=0;" edge="1" parent="1" source="oy7IxXZ8f28WCVUuLW1C-15" target="7GGK_su0vlyQCkf6kP1s-25">
          <mxGeometry width="160" relative="1" as="geometry">
            <mxPoint x="1290" y="844" as="sourcePoint" />
            <mxPoint x="1070" y="705" as="targetPoint" />
          </mxGeometry>
        </mxCell>
        <mxCell id="7GGK_su0vlyQCkf6kP1s-36" value="" style="endArrow=open;endSize=12;dashed=1;html=1;rounded=0;exitX=0;exitY=0.5;exitDx=0;exitDy=0;entryX=1;entryY=0.5;entryDx=0;entryDy=0;edgeStyle=orthogonalEdgeStyle;" edge="1" parent="1" source="oy7IxXZ8f28WCVUuLW1C-16" target="7GGK_su0vlyQCkf6kP1s-1">
          <mxGeometry width="160" relative="1" as="geometry">
            <mxPoint x="1290" y="844" as="sourcePoint" />
            <mxPoint x="1070" y="852" as="targetPoint" />
            <Array as="points">
              <mxPoint x="1200" y="955" />
              <mxPoint x="1200" y="701" />
            </Array>
          </mxGeometry>
        </mxCell>
        <mxCell id="7GGK_su0vlyQCkf6kP1s-38" value="" style="endArrow=open;endSize=12;dashed=1;html=1;rounded=0;exitX=0;exitY=0.5;exitDx=0;exitDy=0;entryX=1;entryY=0.5;entryDx=0;entryDy=0;" edge="1" parent="1" source="oy7IxXZ8f28WCVUuLW1C-16" target="7GGK_su0vlyQCkf6kP1s-2">
          <mxGeometry width="160" relative="1" as="geometry">
            <mxPoint x="1290" y="764" as="sourcePoint" />
            <mxPoint x="1070" y="785" as="targetPoint" />
          </mxGeometry>
        </mxCell>
        <mxCell id="7GGK_su0vlyQCkf6kP1s-46" value="" style="endArrow=open;endSize=12;dashed=1;html=1;rounded=0;exitX=0;exitY=0.5;exitDx=0;exitDy=0;" edge="1" parent="1" source="7GGK_su0vlyQCkf6kP1s-25">
          <mxGeometry width="160" relative="1" as="geometry">
            <mxPoint x="848" y="597" as="sourcePoint" />
            <mxPoint x="839" y="807" as="targetPoint" />
          </mxGeometry>
        </mxCell>
        <mxCell id="7GGK_su0vlyQCkf6kP1s-47" value="" style="endArrow=open;endSize=12;dashed=1;html=1;rounded=0;entryX=1;entryY=0.5;entryDx=0;entryDy=0;exitX=0;exitY=0.5;exitDx=0;exitDy=0;" edge="1" parent="1" source="oy7IxXZ8f28WCVUuLW1C-39" target="7GGK_su0vlyQCkf6kP1s-2">
          <mxGeometry width="160" relative="1" as="geometry">
            <mxPoint x="1290" y="844" as="sourcePoint" />
            <mxPoint x="1070" y="705" as="targetPoint" />
          </mxGeometry>
        </mxCell>
        <mxCell id="7GGK_su0vlyQCkf6kP1s-48" value="" style="endArrow=open;endSize=12;dashed=1;html=1;rounded=0;fontSize=12;curved=1;entryX=0.5;entryY=1;entryDx=0;entryDy=0;exitX=0.5;exitY=0;exitDx=0;exitDy=0;" edge="1" parent="1" source="oy7IxXZ8f28WCVUuLW1C-115" target="7GGK_su0vlyQCkf6kP1s-1">
          <mxGeometry width="160" relative="1" as="geometry">
            <mxPoint x="1070" y="1255" as="sourcePoint" />
            <mxPoint x="1290" y="1255" as="targetPoint" />
            <mxPoint as="offset" />
          </mxGeometry>
        </mxCell>
        <mxCell id="7GGK_su0vlyQCkf6kP1s-49" value="" style="endArrow=open;endSize=12;dashed=1;html=1;rounded=0;fontSize=12;curved=1;entryX=0.5;entryY=1;entryDx=0;entryDy=0;exitX=0.5;exitY=0;exitDx=0;exitDy=0;" edge="1" parent="1" source="oy7IxXZ8f28WCVUuLW1C-115" target="7GGK_su0vlyQCkf6kP1s-2">
          <mxGeometry width="160" relative="1" as="geometry">
            <mxPoint x="1250" y="1245" as="sourcePoint" />
            <mxPoint x="1000" y="810" as="targetPoint" />
            <mxPoint as="offset" />
          </mxGeometry>
        </mxCell>
        <mxCell id="7GGK_su0vlyQCkf6kP1s-50" value="" style="endArrow=open;endSize=12;dashed=1;html=1;rounded=0;fontSize=12;curved=1;entryX=0.5;entryY=1;entryDx=0;entryDy=0;exitX=1;exitY=0.5;exitDx=0;exitDy=0;" edge="1" parent="1" source="oy7IxXZ8f28WCVUuLW1C-32" target="7GGK_su0vlyQCkf6kP1s-2">
          <mxGeometry width="160" relative="1" as="geometry">
            <mxPoint x="1070" y="1255" as="sourcePoint" />
            <mxPoint x="1000" y="730" as="targetPoint" />
            <mxPoint as="offset" />
          </mxGeometry>
        </mxCell>
        <mxCell id="7GGK_su0vlyQCkf6kP1s-55" value="" style="endArrow=open;endSize=12;dashed=1;html=1;rounded=0;exitX=0.5;exitY=1;exitDx=0;exitDy=0;entryX=0.5;entryY=0;entryDx=0;entryDy=0;" edge="1" parent="1" source="7GGK_su0vlyQCkf6kP1s-25">
          <mxGeometry x="-0.0113" width="160" relative="1" as="geometry">
            <mxPoint x="998" y="1012" as="sourcePoint" />
            <mxPoint x="988" y="843" as="targetPoint" />
            <mxPoint as="offset" />
          </mxGeometry>
        </mxCell>
        <mxCell id="7GGK_su0vlyQCkf6kP1s-56" value="" style="endArrow=open;endSize=12;dashed=1;html=1;rounded=0;entryX=0;entryY=0.5;entryDx=0;entryDy=0;exitX=1;exitY=0.5;exitDx=0;exitDy=0;" edge="1" parent="1" source="oy7IxXZ8f28WCVUuLW1C-3" target="7GGK_su0vlyQCkf6kP1s-1">
          <mxGeometry width="160" relative="1" as="geometry">
            <mxPoint x="837" y="724" as="sourcePoint" />
            <mxPoint x="930" y="864" as="targetPoint" />
          </mxGeometry>
        </mxCell>
        <mxCell id="7GGK_su0vlyQCkf6kP1s-58" value="" style="endArrow=open;endSize=12;dashed=1;html=1;rounded=0;fontSize=12;curved=1;entryX=0.5;entryY=0;entryDx=0;entryDy=0;exitX=0.5;exitY=1;exitDx=0;exitDy=0;" edge="1" parent="1" source="oy7IxXZ8f28WCVUuLW1C-32" target="7GGK_su0vlyQCkf6kP1s-5">
          <mxGeometry width="160" relative="1" as="geometry">
            <mxPoint x="1069" y="986" as="sourcePoint" />
            <mxPoint x="1000" y="642" as="targetPoint" />
            <mxPoint as="offset" />
          </mxGeometry>
        </mxCell>
        <mxCell id="7GGK_su0vlyQCkf6kP1s-59" value="" style="endArrow=open;endSize=12;dashed=1;html=1;rounded=0;entryX=0;entryY=0.5;entryDx=0;entryDy=0;exitX=1;exitY=0.5;exitDx=0;exitDy=0;" edge="1" parent="1" source="oy7IxXZ8f28WCVUuLW1C-22" target="7GGK_su0vlyQCkf6kP1s-25">
          <mxGeometry width="160" relative="1" as="geometry">
            <mxPoint x="849" y="814" as="sourcePoint" />
            <mxPoint x="929" y="705" as="targetPoint" />
          </mxGeometry>
        </mxCell>
        <mxCell id="7GGK_su0vlyQCkf6kP1s-60" value="" style="endArrow=open;endSize=12;dashed=1;html=1;rounded=0;exitX=0;exitY=0.5;exitDx=0;exitDy=0;entryX=1;entryY=0.5;entryDx=0;entryDy=0;edgeStyle=orthogonalEdgeStyle;" edge="1" parent="1" source="oy7IxXZ8f28WCVUuLW1C-15" target="7GGK_su0vlyQCkf6kP1s-1">
          <mxGeometry width="160" relative="1" as="geometry">
            <mxPoint x="1290" y="924" as="sourcePoint" />
            <mxPoint x="1070" y="800" as="targetPoint" />
            <Array as="points">
              <mxPoint x="1200" y="1153" />
              <mxPoint x="1200" y="701" />
            </Array>
          </mxGeometry>
        </mxCell>
        <mxCell id="7GGK_su0vlyQCkf6kP1s-61" style="edgeStyle=none;curved=1;rounded=0;orthogonalLoop=1;jettySize=auto;html=1;exitX=0.25;exitY=1;exitDx=0;exitDy=0;fontSize=12;startSize=8;endSize=8;" edge="1" parent="1">
          <mxGeometry relative="1" as="geometry">
            <mxPoint x="954" y="726" as="sourcePoint" />
            <mxPoint x="954" y="726" as="targetPoint" />
          </mxGeometry>
        </mxCell>
        <mxCell id="7GGK_su0vlyQCkf6kP1s-62" value="" style="endArrow=open;endSize=12;dashed=1;html=1;rounded=0;exitX=0;exitY=0.5;exitDx=0;exitDy=0;entryX=1;entryY=0.5;entryDx=0;entryDy=0;" edge="1" parent="1" source="oy7IxXZ8f28WCVUuLW1C-17" target="7GGK_su0vlyQCkf6kP1s-2">
          <mxGeometry width="160" relative="1" as="geometry">
            <mxPoint x="1000" y="635" as="sourcePoint" />
            <mxPoint x="1070" y="754" as="targetPoint" />
          </mxGeometry>
        </mxCell>
        <mxCell id="7GGK_su0vlyQCkf6kP1s-63" value="" style="endArrow=diamondThin;endFill=1;endSize=24;html=1;rounded=0;fontSize=12;curved=1;exitX=1;exitY=0.5;exitDx=0;exitDy=0;entryX=0;entryY=0.5;entryDx=0;entryDy=0;" edge="1" parent="1" source="oy7IxXZ8f28WCVUuLW1C-28" target="7GGK_su0vlyQCkf6kP1s-2">
          <mxGeometry width="160" relative="1" as="geometry">
            <mxPoint x="1100" y="720" as="sourcePoint" />
            <mxPoint x="1260" y="720" as="targetPoint" />
          </mxGeometry>
        </mxCell>
        <mxCell id="7GGK_su0vlyQCkf6kP1s-66" value="" style="endArrow=open;endSize=12;dashed=1;html=1;rounded=0;exitX=0.5;exitY=0;exitDx=0;exitDy=0;entryX=0.5;entryY=0;entryDx=0;entryDy=0;" edge="1" parent="1" source="oy7IxXZ8f28WCVUuLW1C-89" target="oy7IxXZ8f28WCVUuLW1C-109">
          <mxGeometry width="160" relative="1" as="geometry">
            <mxPoint x="989" y="598" as="sourcePoint" />
            <mxPoint x="990" y="450" as="targetPoint" />
          </mxGeometry>
        </mxCell>
        <mxCell id="oy7IxXZ8f28WCVUuLW1C-109" value="&lt;b&gt;ScoreCalculator&lt;/b&gt;" style="html=1;whiteSpace=wrap;" parent="1" vertex="1">
          <mxGeometry x="920" y="520" width="140" height="50" as="geometry" />
        </mxCell>
        <mxCell id="7GGK_su0vlyQCkf6kP1s-67" value="" style="endArrow=open;endSize=12;dashed=1;html=1;rounded=0;fontSize=12;curved=1;entryX=0.5;entryY=1;entryDx=0;entryDy=0;exitX=1;exitY=0.5;exitDx=0;exitDy=0;" edge="1" parent="1" source="oy7IxXZ8f28WCVUuLW1C-32" target="7GGK_su0vlyQCkf6kP1s-2">
          <mxGeometry width="160" relative="1" as="geometry">
            <mxPoint x="1060" y="1123" as="sourcePoint" />
            <mxPoint x="989" y="726" as="targetPoint" />
            <mxPoint as="offset" />
          </mxGeometry>
        </mxCell>
        <mxCell id="7GGK_su0vlyQCkf6kP1s-2" value="&lt;b&gt;DataManager&lt;/b&gt;" style="html=1;whiteSpace=wrap;" vertex="1" parent="1">
          <mxGeometry x="920" y="1119" width="140" height="50" as="geometry" />
        </mxCell>
        <mxCell id="7GGK_su0vlyQCkf6kP1s-68" value="" style="endArrow=diamondThin;endFill=1;endSize=24;html=1;rounded=0;fontSize=12;curved=1;exitX=1;exitY=0.5;exitDx=0;exitDy=0;entryX=0;entryY=0.5;entryDx=0;entryDy=0;" edge="1" parent="1" source="oy7IxXZ8f28WCVUuLW1C-22" target="7GGK_su0vlyQCkf6kP1s-2">
          <mxGeometry width="160" relative="1" as="geometry">
            <mxPoint x="850" y="620" as="sourcePoint" />
            <mxPoint x="940" y="864" as="targetPoint" />
          </mxGeometry>
        </mxCell>
      </root>
    </mxGraphModel>
  </diagram>
</mxfile>
